<?xml version="1.0" encoding="UTF-8"?>
<svg width="98px" height="69px" viewBox="0 0 98 69" version="1.1" xmlns="http://www.w3.org/2000/svg" xmlns:xlink="http://www.w3.org/1999/xlink">
    <!-- Generator: sketchtool 52.5 (67469) - http://www.bohemiancoding.com/sketch -->
    <title>46CE7B01-3BE7-4CEE-8A82-7F61623AC4FF@3x</title>
    <desc>Created with sketchtool.</desc>
    <g id="Page-1" stroke="none" stroke-width="1" fill="none" fill-rule="evenodd">
        <g id="02-Kazoops-website-mobile" transform="translate(-46.000000, -3467.000000)" fill="#231F20">
            <g id="Logos" transform="translate(46.000000, 3457.000000)">
                <path d="M97.384672,41.5344743 C97.193312,40.8045982 95.648672,40.8106513 95.106592,41.4130938 C94.705312,41.8597487 91.951392,44.1494124 90.550432,45.3065097 C91.527712,42.5367398 95.240992,37.6410584 95.240992,37.6410584 L95.218592,37.6391469 C95.331872,37.5336956 95.400032,37.3693062 95.174752,37.1447044 C94.749792,36.7219434 94.239712,36.6365628 93.574432,36.8015894 C91.801952,37.2393239 83.019872,44.5384035 83.019872,44.5384035 C83.019872,44.5384035 81.575072,45.680846 81.404832,45.2577664 C81.261472,44.9009522 87.824672,36.8872885 89.898592,34.3682442 C91.246752,33.3347575 90.645792,35.1822265 90.645792,35.1822265 C90.645792,35.1822265 90.094112,36.9589699 90.943712,36.7894832 C91.793312,36.620315 93.135712,35.6476779 94.016032,33.6167044 C94.123232,33.368846 94.179552,33.1359611 94.196512,32.917731 C94.448032,31.7217664 94.653472,29.4148991 92.473632,29.4776602 C89.535072,29.5624035 88.042912,30.8424743 86.863712,31.9030407 C85.085792,33.7976602 82.275552,36.792669 82.275552,36.792669 L72.384032,47.812492 C72.384032,47.812492 71.100192,49.1081735 71.610272,48.0925274 C72.120672,47.0772 77.258912,36.6235009 77.258912,36.6235009 C77.258912,36.6235009 77.917792,35.2838549 78.363872,34.0254478 C78.809952,32.7670407 78.219232,30.2033947 77.029472,29.780315 C75.840032,29.3572354 75.389472,30.0654478 74.156832,31.0807752 C73.694752,31.4614832 71.137632,33.7055894 68.292192,37.0309699 C67.990432,37.3839611 67.684192,37.7452354 67.375392,38.1122442 L67.682272,37.5461204 C68.915552,35.5820496 77.751392,20.0122088 77.751392,20.0122088 C77.751392,20.0122088 80.326752,15.6081027 80.641632,14.5965982 C81.659872,11.3247398 80.129952,9.80158938 78.516512,10.5352885 C77.793632,10.4502265 75.155872,14.9530938 74.052832,16.2325274 C72.626592,17.8875717 63.025312,30.2454478 60.135072,33.9696956 C61.544352,30.5984389 62.330592,27.5002088 60.791392,27.0796779 C58.673952,26.5008106 56.930912,28.412315 55.878752,29.173731 C54.826912,29.9354655 51.031072,34.0821558 51.031072,34.0821558 C51.031072,34.0821558 52.101792,32.1853062 52.652832,31.2894478 C53.203872,30.3935894 53.760032,28.0054832 53.377312,27.2125274 C52.994912,26.4189345 51.377632,26.1277487 50.524192,26.6671115 C49.670432,27.2061558 38.767072,41.8285274 35.833952,45.6117133 C34.954592,46.745554 33.751392,48.3438903 32.498272,50.0250584 L32.550752,49.8638549 C36.362272,42.4800319 35.823392,42.882085 38.543392,37.001023 C39.654432,34.5982619 39.011232,33.5615894 38.925792,33.2780496 C38.670752,32.4318903 37.565792,32.516315 36.290912,33.7011292 C35.016032,34.8862619 34.031072,35.8254478 33.156512,36.8216602 C32.281952,37.817554 24.687712,45.8863327 24.687712,45.8863327 C24.687712,45.8863327 30.171232,34.2092708 30.850912,33.1088814 C31.530912,32.0091292 30.075552,30.6229699 29.395552,30.5382265 C28.715552,30.4538018 28.088672,31.4264389 28.088672,31.4264389 C28.088672,31.4264389 20.832992,38.6372708 17.388512,42.201908 C13.936352,45.7741912 12.133792,48.6411292 8.688672,50.8514655 C7.412192,51.4634655 6.759072,50.2436071 6.632352,48.9523858 C6.504672,47.6541558 7.628192,43.8738372 11.371552,37.6786513 C14.264672,32.8912885 17.302432,29.4190407 19.653472,26.7572708 C20.111072,26.4552531 21.831392,25.1232531 21.725792,27.2756071 C21.669472,28.4314301 21.947232,30.3311469 23.765472,29.7430407 C25.502112,29.1820142 28.483232,26.1334832 28.483232,23.0871823 C28.483232,20.2527398 25.275232,19.9258726 24.828192,19.8940142 C23.868512,19.6573062 22.270432,19.8978372 21.379872,20.1616248 C18.935712,20.8867221 11.370592,26.8952177 6.632992,34.3781204 C1.895712,41.8613416 0.072032,45.8436425 0.002592,50.3818726 C-0.063328,54.6763858 1.178912,56.3798549 3.247072,56.7557841 C6.868512,57.4146159 8.008352,56.393554 8.828512,55.821377 C9.262752,55.518085 9.616992,55.1727398 9.902112,54.8082796 C12.461792,52.1834655 22.461472,40.745023 22.461472,40.745023 C22.461472,40.745023 21.380192,43.2752177 20.175712,46.6898018 C19.091872,49.7612708 19.366752,49.3646336 19.109152,49.964846 C18.599072,51.1493416 18.547552,54.1698372 20.535392,54.072669 C22.140832,53.9946159 22.378592,53.1567398 24.621792,50.7386867 C26.762912,48.4308637 31.339552,43.8980496 31.339552,43.8980496 C31.339552,43.8980496 26.455072,55.6455186 24.903392,58.5430407 C23.352672,61.4399257 20.008352,65.5875717 20.397152,68.5414832 C20.786592,71.4953947 23.620192,69.9725628 24.344352,68.5144035 C24.883232,67.4283504 28.041312,61.0681381 29.617952,57.8928106 C31.642592,55.0516779 34.979232,50.444315 37.618592,47.1664035 C41.139232,42.7947929 41.896992,41.9027575 42.750752,40.8664035 C46.703392,36.0704389 45.091552,38.5878903 43.880352,40.809377 C43.481952,41.5398903 42.040352,44.5498726 38.840672,51.1496602 C36.711392,55.5413416 30.793312,65.9854832 28.689952,71.0627575 C27.363872,74.2635717 25.538272,77.876315 27.383392,78.4290584 C29.228192,78.9814832 30.573472,77.4554655 32.030752,74.4429345 C33.488352,71.4307221 42.623712,52.2889168 44.620512,48.5098726 C47.124192,43.7712531 49.586592,38.8421204 51.548192,36.4090938 C53.509792,33.9760673 56.215072,31.2970938 56.743392,31.0670761 C57.508512,30.7341558 55.072992,36.1513593 54.395232,37.5935894 C53.717472,39.0361381 52.867232,40.6816248 50.712352,43.3433947 C50.552992,43.5405982 50.408032,43.7225097 50.272672,43.8951823 C50.272352,43.8955009 50.271712,43.8961381 50.271072,43.8964566 C48.316192,45.5467221 46.830432,47.173731 46.513632,47.5971292 C46.197152,48.0202088 46.575072,48.5410938 47.170272,48.7819434 C47.765472,49.0224743 48.805472,48.937731 48.805472,48.937731 C49.048672,48.937731 49.360992,48.8351469 49.727712,48.6471823 C49.969952,48.5586159 50.229792,48.4506159 50.514272,48.3161735 C52.077792,47.5767398 53.030752,46.5158549 53.872352,45.3160673 C56.306272,42.956315 59.033952,39.8329168 60.982432,37.1705097 C62.950112,34.4816602 66.433952,30.377023 69.263392,27.1249168 C66.511712,32.6529876 62.344352,41.1228637 62.344352,41.1228637 L54.099232,55.3393593 C53.589472,56.016669 53.674592,57.200846 54.311712,57.3703327 C54.949472,57.5395009 55.969312,57.073731 57.031712,56.1855186 C57.599712,55.7108283 58.391392,54.4989345 59.005472,53.4734124 C60.872672,50.913908 68.781472,40.153731 73.078112,35.5807752 L72.736032,36.6645982 C72.347232,37.8946513 66.052512,49.8664035 65.387552,52.2784035 C64.721952,54.6897664 66.507232,54.7321381 66.507232,54.7321381 C66.507232,54.7321381 68.121952,54.8592531 69.014752,54.0975186 C69.495712,53.6868637 73.311072,49.3796071 76.726752,45.4954301 C76.215712,46.7751823 76.015392,47.8969168 76.409312,48.5939788 C77.938912,51.3019434 81.150432,48.9523858 81.150432,48.9523858 L89.352672,42.3274301 C88.510112,43.5294478 87.680992,44.6922796 87.094752,45.4670761 C85.348512,47.7752177 84.685792,50.3200673 85.875872,50.997377 C86.474912,51.3382619 88.316512,50.3544743 89.735072,49.2980496 C89.606112,49.4449168 95.810592,44.549554 96.412192,43.8193593 C96.847392,43.2905097 97.576032,42.2640319 97.384672,41.5344743" id="Cypha-Logo"></path>
            </g>
        </g>
    </g>
</svg>